<?xml version="1.0" encoding="UTF-8" standalone="no"?>
<svg
   xmlns:dc="http://purl.org/dc/elements/1.1/"
   xmlns:cc="http://creativecommons.org/ns#"
   xmlns:rdf="http://www.w3.org/1999/02/22-rdf-syntax-ns#"
   xmlns:svg="http://www.w3.org/2000/svg"
   xmlns="http://www.w3.org/2000/svg"
   xmlns:sodipodi="http://sodipodi.sourceforge.net/DTD/sodipodi-0.dtd"
   xmlns:inkscape="http://www.inkscape.org/namespaces/inkscape"
   enable-background="new 0 0 64 64"
   height="64px"
   version="1.1"
   viewBox="0 0 64 64"
   width="64px"
   xml:space="preserve"
   id="svg2"
   inkscape:version="0.48.4 r9939"
   sodipodi:docname="closed_group_with_attrs.svg"><metadata
     id="metadata30"><rdf:RDF><cc:Work
         rdf:about=""><dc:format>image/svg+xml</dc:format><dc:type
           rdf:resource="http://purl.org/dc/dcmitype/StillImage" /><dc:title /></cc:Work></rdf:RDF></metadata><defs
     id="defs28" /><sodipodi:namedview
     pagecolor="#ffffff"
     bordercolor="#666666"
     borderopacity="1"
     objecttolerance="10"
     gridtolerance="10"
     guidetolerance="10"
     inkscape:pageopacity="0"
     inkscape:pageshadow="2"
     inkscape:window-width="1364"
     inkscape:window-height="698"
     id="namedview26"
     showgrid="false"
     inkscape:zoom="3.6875"
     inkscape:cx="-6.5084743"
     inkscape:cy="32"
     inkscape:window-x="0"
     inkscape:window-y="0"
     inkscape:window-maximized="1"
     inkscape:current-layer="Layer_1" /><g
     id="Layer_1"><circle
       style="fill:#87aade;fill-opacity:1"
       sodipodi:ry="32"
       sodipodi:rx="32"
       sodipodi:cy="32"
       sodipodi:cx="32"
       id="circle7"
       r="32"
       cy="32"
       cx="32" /><g
       opacity="0.2"
       id="g9"><g
         id="g11"><path
           d="M32,22.923h-0.417H14.5c-1.38,0-2.5,1.063-2.5,2.422v22.193C12,48.897,13.12,50,14.5,50h35     c1.38,0,2.5-1.103,2.5-2.462V27.846v-2.501v-2.422H32z"
           fill="#231F20"
           id="path13" /></g></g><g
       id="g15"><g
         id="g17"><path
           d="M32,20.923h-0.417H14.5c-1.38,0-2.5,1.063-2.5,2.422v22.193C12,46.897,13.12,48,14.5,48h35     c1.38,0,2.5-1.103,2.5-2.462V25.846v-2.501v-2.422H32z"
           fill="#FFFFFF"
           id="path19" /></g></g><g
       id="g21"><path
         d="M52,18.462C52,17.103,50.88,16,49.5,16H37c-1.38,0-2.5,1.103-2.5,2.462c0,0-0.325,2.257-2.5,2.461h20    V18.462z"
         fill="#E0E0D1"
         id="path23" /></g></g><g
     id="Layer_2" /></svg>