<?xml version="1.0" encoding="UTF-8" standalone="no"?>
<svg
   xmlns:dc="http://purl.org/dc/elements/1.1/"
   xmlns:cc="http://creativecommons.org/ns#"
   xmlns:rdf="http://www.w3.org/1999/02/22-rdf-syntax-ns#"
   xmlns:svg="http://www.w3.org/2000/svg"
   xmlns="http://www.w3.org/2000/svg"
   xmlns:sodipodi="http://sodipodi.sourceforge.net/DTD/sodipodi-0.dtd"
   xmlns:inkscape="http://www.inkscape.org/namespaces/inkscape"
   enable-background="new 0 0 64 64"
   height="64px"
   version="1.1"
   viewBox="0 0 64 64"
   width="64px"
   xml:space="preserve"
   id="svg2"
   inkscape:version="0.48.4 r9939"
   sodipodi:docname="dataset.svg"><metadata
     id="metadata54"><rdf:RDF><cc:Work
         rdf:about=""><dc:format>image/svg+xml</dc:format><dc:type
           rdf:resource="http://purl.org/dc/dcmitype/StillImage" /></cc:Work></rdf:RDF></metadata><defs
     id="defs52" /><sodipodi:namedview
     pagecolor="#ffffff"
     bordercolor="#666666"
     borderopacity="1"
     objecttolerance="10"
     gridtolerance="10"
     guidetolerance="10"
     inkscape:pageopacity="0"
     inkscape:pageshadow="2"
     inkscape:window-width="1364"
     inkscape:window-height="698"
     id="namedview50"
     showgrid="false"
     inkscape:zoom="3.6875"
     inkscape:cx="32.542373"
     inkscape:cy="32"
     inkscape:window-x="0"
     inkscape:window-y="0"
     inkscape:window-maximized="1"
     inkscape:current-layer="svg2" /><g
     id="g5"><circle
       style="fill:#e0995e"
       sodipodi:ry="32"
       sodipodi:rx="32"
       sodipodi:cy="32"
       sodipodi:cx="32"
       id="circle7"
       r="32"
       cy="32"
       cx="32" /></g><g
     style="opacity:0.2"
     id="g13"><path
       style="fill:#231f20"
       inkscape:connector-curvature="0"
       id="path15"
       d="M 36,23 V 14 H 19 c -1.657,0 -3,1.343 -3,3 v 34 c 0,1.657 1.343,3 3,3 h 26 c 1.657,0 3,-1.343 3,-3 V 26 h -9 c -1.657,0 -3,-1.343 -3,-3 z" /></g><path
     d="M 36,21 V 12 H 19 c -1.657,0 -3,1.343 -3,3 v 34 c 0,1.657 1.343,3 3,3 h 26 c 1.657,0 3,-1.343 3,-3 V 24 h -9 c -1.657,0 -3,-1.343 -3,-3 z"
     id="path19"
     inkscape:connector-curvature="0"
     style="fill:#ffffff" /><g
     style="opacity:0.2"
     id="g21"><polygon
       style="fill:#231f20"
       id="polygon23"
       points="37.016,23.294 48,33 48,24 " /></g><g
     id="g25"><path
       style="fill:#ffffff"
       inkscape:connector-curvature="0"
       id="path27"
       d="m 36,12 v 9 c 0,1.657 1.343,3 3,3 h 9 L 36,12 z" /></g><g
     id="Layer_2" /></svg>