<?xml version="1.0" encoding="UTF-8" standalone="no"?>
<svg
   xmlns:dc="http://purl.org/dc/elements/1.1/"
   xmlns:cc="http://creativecommons.org/ns#"
   xmlns:rdf="http://www.w3.org/1999/02/22-rdf-syntax-ns#"
   xmlns:svg="http://www.w3.org/2000/svg"
   xmlns="http://www.w3.org/2000/svg"
   xmlns:sodipodi="http://sodipodi.sourceforge.net/DTD/sodipodi-0.dtd"
   xmlns:inkscape="http://www.inkscape.org/namespaces/inkscape"
   enable-background="new 0 0 64 64"
   height="64px"
   version="1.1"
   viewBox="0 0 64 64"
   width="64px"
   xml:space="preserve"
   id="svg5033"
   inkscape:version="0.48.4 r9939"
   sodipodi:docname="open_group.svg"><metadata
     id="metadata5061"><rdf:RDF><cc:Work
         rdf:about=""><dc:format>image/svg+xml</dc:format><dc:type
           rdf:resource="http://purl.org/dc/dcmitype/StillImage" /></cc:Work></rdf:RDF></metadata><defs
     id="defs5059" /><sodipodi:namedview
     pagecolor="#ffffff"
     bordercolor="#666666"
     borderopacity="1"
     objecttolerance="10"
     gridtolerance="10"
     guidetolerance="10"
     inkscape:pageopacity="0"
     inkscape:pageshadow="2"
     inkscape:window-width="1364"
     inkscape:window-height="698"
     id="namedview5057"
     showgrid="false"
     inkscape:zoom="3.6875"
     inkscape:cx="-7.8644068"
     inkscape:cy="32"
     inkscape:window-x="0"
     inkscape:window-y="0"
     inkscape:window-maximized="1"
     inkscape:current-layer="svg5033" /><g
     id="g5036"><circle
       style="fill:#e0995e"
       sodipodi:ry="32"
       sodipodi:rx="32"
       sodipodi:cy="32"
       sodipodi:cx="32"
       id="circle5038"
       r="32"
       cy="32"
       cx="32" /></g><g
     style="opacity:0.2"
     id="g5040"><g
       id="g5042"><path
         style="fill:#231f20"
         inkscape:connector-curvature="0"
         id="path5044"
         d="M 32,22.923 H 31.583 14.5 c -1.38,0 -2.5,1.063 -2.5,2.422 V 47.538 C 12,48.897 13.12,50 14.5,50 h 35 C 50.88,50 52,48.897 52,47.538 V 27.846 25.345 22.923 H 32 z" /></g></g><g
     id="g5046"><g
       id="g5048"><path
         style="fill:#ffffff"
         inkscape:connector-curvature="0"
         id="path5050"
         d="M 32,20.923 H 31.583 14.5 c -1.38,0 -2.5,1.063 -2.5,2.422 V 45.538 C 12,46.897 13.12,48 14.5,48 h 35 C 50.88,48 52,46.897 52,45.538 V 25.846 23.345 20.923 H 32 z" /></g></g><g
     id="g5052"><path
       style="fill:#e0e0d1"
       inkscape:connector-curvature="0"
       id="path5054"
       d="M 52,18.462 C 52,17.103 50.88,16 49.5,16 H 37 c -1.38,0 -2.5,1.103 -2.5,2.462 0,0 -0.325,2.257 -2.5,2.461 h 20 v -2.461 z" /></g><g
     id="Layer_2" /><path
     sodipodi:type="star"
     style="fill:#b3b3b3;fill-opacity:1"
     id="path5063"
     sodipodi:sides="3"
     sodipodi:cx="-89.762711"
     sodipodi:cy="3.7966101"
     sodipodi:r1="7.8830872"
     sodipodi:r2="3.9415436"
     sodipodi:arg1="-0.52359878"
     sodipodi:arg2="0.52359878"
     inkscape:flatsided="false"
     inkscape:rounded="0"
     inkscape:randomized="0"
     d="m -82.935757,-0.14493349 -3.413477,5.91231539 -3.413477,5.9123151 -3.413476,-5.9123151 -3.413477,-5.91231533 6.826953,-3e-8 z"
     inkscape:transform-center-y="3.4856487"
     transform="matrix(2.0923799,0,0,1.7686721,219.81769,24.260893)" /></svg>